{"glyphs":{":":{"x_min":0,"x_max":195,"ha":195,"o":"m 37 107 l 159 107 l 159 -10 l 37 -10 z m 37 400 l 159 400 l 159 283 l 37 283 z"},"$":{"x_min":0,"x_max":732,"ha":732,"o":"m 427 283 l 427 156 l 513 156 q 537 156 555 175 q 574 193 574 220 q 574 247 555 265 q 537 283 513 283 z m 305 527 l 220 527 q 195 527 177 509 q 159 491 159 464 q 159 437 177 419 q 195 400 220 400 l 305 400 z m 305 283 l 220 283 q 143 283 90 336 q 37 390 37 464 q 37 538 90 591 q 143 645 220 645 l 305 645 l 305 693 l 427 693 l 427 645 l 696 645 l 696 527 l 427 527 l 427 400 l 513 400 q 589 400 643 347 q 696 294 696 220 q 696 146 643 92 q 589 39 513 39 l 427 39 l 427 -10 l 305 -10 l 305 39 l 37 39 l 37 156 l 305 156 z"},"?":{"x_min":0,"x_max":732,"ha":732,"o":"m 366 283 q 342 283 323 265 q 305 247 305 220 l 305 137 l 183 137 l 183 220 q 183 294 236 347 q 290 400 366 400 l 513 400 q 537 400 555 419 q 574 437 574 464 l 574 513 q 574 540 555 558 q 537 576 513 576 l 37 576 l 37 693 l 513 693 q 589 693 643 640 q 696 587 696 513 l 696 464 q 696 390 643 336 q 589 283 513 283 z m 183 107 l 305 107 l 305 -10 l 183 -10 z"},"<":{"x_min":0,"x_max":635,"ha":635,"o":"m 37 262 l 37 422 l 598 600 l 598 481 l 159 342 l 598 202 l 598 83 z"},"'":{"x_min":0,"x_max":195,"ha":195,"o":"m 85 576 l 37 576 l 37 693 l 159 693 l 159 562 q 159 538 141 521 q 124 503 98 503 l 70 503 l 30 571 l 73 571 q 85 571 85 576 z"},"=":{"x_min":0,"x_max":635,"ha":635,"o":"m 37 498 l 598 498 l 598 381 l 37 381 z m 37 303 l 598 303 l 598 186 l 37 186 z"},"a":{"x_min":0,"x_max":635,"ha":635,"o":"m 159 171 q 159 144 177 126 q 195 107 220 107 l 476 107 l 476 405 l 220 405 q 195 405 177 387 q 159 369 159 342 z m 598 -10 l 220 -10 q 143 -10 90 43 q 37 97 37 171 l 37 342 q 37 416 90 469 q 143 522 220 522 l 598 522 z"},"L":{"x_min":0,"x_max":684,"ha":684,"o":"m 647 107 l 647 -10 l 220 -10 q 143 -10 90 43 q 37 97 37 171 l 37 693 l 159 693 l 159 171 q 159 144 177 126 q 195 107 220 107 z"},"3":{"x_min":0,"x_max":732,"ha":732,"o":"m 183 283 l 183 400 l 513 400 q 537 400 555 419 q 574 437 574 464 l 574 513 q 574 540 555 558 q 537 576 513 576 l 37 576 l 37 693 l 513 693 q 589 693 643 640 q 696 587 696 513 l 696 464 q 696 390 649 341 q 696 294 696 220 l 696 171 q 696 97 643 43 q 589 -10 513 -10 l 37 -10 l 37 107 l 513 107 q 537 107 555 126 q 574 144 574 171 l 574 220 q 574 247 555 265 q 537 283 513 283 z"},";":{"x_min":0,"x_max":195,"ha":195,"o":"m 37 400 l 159 400 l 159 283 l 37 283 z m 85 -10 l 37 -10 l 37 107 l 159 107 l 159 -24 q 159 -48 141 -65 q 124 -83 98 -83 l 70 -83 l 30 -15 l 73 -15 q 85 -15 85 -10 z"},"J":{"x_min":0,"x_max":684,"ha":684,"o":"m 464 107 q 488 107 507 126 q 525 144 525 171 l 525 693 l 647 693 l 647 171 q 647 97 594 43 q 541 -10 464 -10 l 37 -10 l 37 107 z"},"V":{"x_min":0,"x_max":732,"ha":732,"o":"m 284 -10 l 8 693 l 131 693 l 361 107 l 372 107 l 602 693 l 725 693 l 448 -10 z"},"\"":{"x_min":0,"x_max":342,"ha":342,"o":"m 85 576 l 37 576 l 37 693 l 159 693 l 159 562 q 159 538 141 521 q 124 503 98 503 l 70 503 l 30 571 l 73 571 q 85 571 85 576 z m 232 576 l 183 576 l 183 693 l 305 693 l 305 562 q 305 538 288 521 q 270 503 244 503 l 216 503 l 176 571 l 220 571 q 232 571 232 576 z"},"7":{"x_min":0,"x_max":732,"ha":732,"o":"m 652 693 l 351 -10 l 215 -10 l 466 576 l 37 576 l 37 693 z"},"S":{"x_min":0,"x_max":781,"ha":781,"o":"m 220 283 q 143 283 90 336 q 37 390 37 464 l 37 513 q 37 587 90 640 q 143 693 220 693 l 745 693 l 745 576 l 220 576 q 195 576 177 558 q 159 540 159 513 l 159 464 q 159 437 177 419 q 195 400 220 400 l 562 400 q 638 400 691 347 q 745 294 745 220 l 745 171 q 745 97 691 43 q 638 -10 562 -10 l 37 -10 l 37 107 l 562 107 q 586 107 604 126 q 623 144 623 171 l 623 220 q 623 247 604 265 q 586 283 562 283 z"},"}":{"x_min":0,"x_max":537,"ha":537,"o":"m 279 341 q 232 390 232 464 l 232 562 q 232 588 214 607 q 195 625 171 625 l 37 625 l 37 742 l 171 742 q 248 742 301 689 q 354 636 354 562 l 354 464 q 354 437 372 419 q 391 400 415 400 l 500 400 l 500 283 l 415 283 q 391 283 372 265 q 354 247 354 220 l 354 122 q 354 48 301 -5 q 248 -59 171 -59 l 37 -59 l 37 59 l 171 59 q 195 59 214 77 q 232 95 232 122 l 232 220 q 232 294 279 341 z"},"Z":{"x_min":0,"x_max":781,"ha":781,"o":"m 518 576 l 37 576 l 37 693 l 755 693 l 264 107 l 745 107 l 745 -10 l 26 -10 z"},"x":{"x_min":0,"x_max":586,"ha":586,"o":"m 217 256 l 2 522 l 153 522 l 293 350 l 433 522 l 584 522 l 369 256 l 584 -10 l 433 -10 l 293 163 l 153 -10 l 2 -10 z"},")":{"x_min":0,"x_max":488,"ha":488,"o":"m 269 59 q 293 59 311 77 q 330 95 330 122 l 330 562 q 330 588 311 607 q 293 625 269 625 l 37 625 l 37 742 l 269 742 q 345 742 398 689 q 452 636 452 562 l 452 122 q 452 48 398 -5 q 345 -59 269 -59 l 37 -59 l 37 59 z"},"&":{"x_min":0,"x_max":732,"ha":732,"o":"m 366 107 q 391 107 409 126 q 427 144 427 171 l 427 269 q 427 295 409 314 q 391 332 366 332 l 220 332 q 195 332 177 314 q 159 295 159 269 l 159 171 q 159 144 177 126 q 195 107 220 107 z m 366 449 q 391 449 409 468 q 427 486 427 513 q 427 540 409 558 q 391 576 366 576 l 220 576 q 195 576 177 558 q 159 540 159 513 q 159 486 177 468 q 195 449 220 449 z m 488 36 q 443 -10 366 -10 l 220 -10 q 143 -10 90 43 q 37 97 37 171 l 37 269 q 37 343 84 391 q 37 438 37 513 q 37 587 90 640 q 143 693 220 693 l 366 693 q 443 693 496 640 q 549 587 549 513 q 544 458 513 415 q 543 449 610 449 l 697 449 l 696 332 l 610 332 q 586 332 568 314 q 549 295 549 269 l 549 171 q 549 144 568 126 q 586 107 610 107 l 696 107 l 696 -10 l 610 -10 q 534 -10 488 36 z"},"_":{"x_min":0,"x_max":684,"ha":684,"o":"m 647 -39 l 647 -156 l 37 -156 l 37 -39 z"},"v":{"x_min":0,"x_max":586,"ha":586,"o":"m 297 107 l 455 522 l 578 522 l 375 -10 l 211 -10 l 8 522 l 131 522 l 289 107 z"},"O":{"x_min":0,"x_max":781,"ha":781,"o":"m 159 171 q 159 144 177 126 q 195 107 220 107 l 562 107 q 586 107 604 126 q 623 144 623 171 l 623 513 q 623 540 604 558 q 586 576 562 576 l 220 576 q 195 576 177 558 q 159 540 159 513 z m 745 171 q 745 97 691 43 q 638 -10 562 -10 l 220 -10 q 143 -10 90 43 q 37 97 37 171 l 37 513 q 37 587 90 640 q 143 693 220 693 l 562 693 q 638 693 691 640 q 745 587 745 513 z"},"(":{"x_min":0,"x_max":488,"ha":488,"o":"m 452 59 l 452 -59 l 220 -59 q 143 -59 90 -5 q 37 48 37 122 l 37 562 q 37 636 90 689 q 143 742 220 742 l 452 742 l 452 625 l 220 625 q 195 625 177 607 q 159 588 159 562 l 159 122 q 159 95 177 77 q 195 59 220 59 z"},"C":{"x_min":0,"x_max":781,"ha":781,"o":"m 745 107 l 745 -10 l 220 -10 q 143 -10 90 43 q 37 97 37 171 l 37 513 q 37 587 90 640 q 143 693 220 693 l 745 693 l 745 576 l 220 576 q 195 576 177 558 q 159 540 159 513 l 159 171 q 159 144 177 126 q 195 107 220 107 z"},"W":{"x_min":0,"x_max":1001,"ha":1001,"o":"m 186 -10 l 10 693 l 132 693 l 271 138 l 430 693 l 571 693 l 710 138 l 869 693 l 992 693 l 791 -10 l 625 -10 l 497 500 l 352 -10 z"},"A":{"x_min":0,"x_max":781,"ha":781,"o":"m 385 576 l 278 303 l 503 303 l 396 576 z m 473 693 l 749 -10 l 626 -10 l 549 186 l 232 186 l 155 -10 l 32 -10 l 309 693 z"},"f":{"x_min":0,"x_max":439,"ha":439,"o":"m 159 405 l 159 -10 l 37 -10 l 37 513 q 37 587 90 640 q 143 693 220 693 l 403 694 l 403 577 l 220 576 q 195 576 177 558 q 159 540 159 522 l 403 522 l 403 405 z"},"Q":{"x_min":0,"x_max":781,"ha":781,"o":"m 330 -10 l 220 -10 q 143 -10 90 43 q 37 97 37 171 l 37 513 q 37 587 90 640 q 143 693 220 693 l 562 693 q 638 693 691 640 q 745 587 745 513 l 745 171 q 745 97 691 43 q 638 -10 562 -10 l 452 -10 l 452 -107 l 330 -107 z m 330 107 l 330 205 l 452 205 l 452 107 l 562 107 q 586 107 604 126 q 623 144 623 171 l 623 513 q 623 540 604 558 q 586 576 562 576 l 220 576 q 195 576 177 558 q 159 540 159 513 l 159 171 q 159 144 177 126 q 195 107 220 107 z"},"w":{"x_min":0,"x_max":732,"ha":732,"o":"m 136 -10 l 10 522 l 132 522 l 220 155 l 307 522 l 425 522 l 513 155 l 600 522 l 723 522 l 596 -10 l 429 -10 l 366 255 l 303 -10 z"},"-":{"x_min":0,"x_max":635,"ha":635,"o":"m 37 400 l 598 400 l 598 283 l 37 283 z"},"E":{"x_min":0,"x_max":781,"ha":781,"o":"m 159 283 l 159 171 q 159 144 177 126 q 195 107 220 107 l 745 107 l 745 -10 l 220 -10 q 143 -10 90 43 q 37 97 37 171 l 37 513 q 37 587 90 640 q 143 693 220 693 l 745 693 l 745 576 l 220 576 q 195 576 177 558 q 159 540 159 513 l 159 400 l 647 400 l 647 283 z"},"s":{"x_min":0,"x_max":635,"ha":635,"o":"m 171 522 l 549 522 l 549 405 l 171 405 q 167 405 163 401 q 159 397 159 391 l 159 330 q 159 323 163 319 q 167 315 171 315 l 464 315 q 521 315 559 276 q 598 237 598 183 l 598 123 q 598 68 559 29 q 521 -10 464 -10 l 37 -10 l 37 107 l 464 107 q 468 107 472 111 q 476 115 476 122 l 476 183 q 476 190 472 194 q 468 198 464 198 l 171 198 q 114 198 75 237 q 37 275 37 330 l 37 391 q 37 445 75 484 q 114 522 171 522 z"},">":{"x_min":0,"x_max":635,"ha":635,"o":"m 37 83 l 37 202 l 476 342 l 37 481 l 37 600 l 598 422 l 598 262 z"},"l":{"x_min":0,"x_max":195,"ha":195,"o":"m 37 693 l 159 693 l 159 -10 l 37 -10 z"},"8":{"x_min":0,"x_max":732,"ha":732,"o":"m 513 107 q 537 107 555 126 q 574 144 574 171 l 574 220 q 574 247 555 265 q 537 283 513 283 l 220 283 q 195 283 177 265 q 159 247 159 220 l 159 171 q 159 144 177 126 q 195 107 220 107 z m 513 400 q 537 400 555 419 q 574 437 574 464 l 574 513 q 574 540 555 558 q 537 576 513 576 l 220 576 q 195 576 177 558 q 159 540 159 513 l 159 464 q 159 437 177 419 q 195 400 220 400 z m 84 342 q 37 394 37 464 l 37 513 q 37 587 90 640 q 143 693 220 693 l 513 693 q 589 693 643 640 q 696 587 696 513 l 696 464 q 696 394 648 342 q 696 290 696 220 l 696 171 q 696 97 643 43 q 589 -10 513 -10 l 220 -10 q 143 -10 90 43 q 37 97 37 171 l 37 220 q 37 290 84 342 z"},"\\":{"x_min":0,"x_max":464,"ha":464,"o":"m 155 693 l 432 -10 l 309 -10 l 32 693 z"},"e":{"x_min":0,"x_max":635,"ha":635,"o":"m 159 186 l 159 171 q 159 144 177 126 q 195 107 220 107 l 549 107 l 549 -10 l 220 -10 q 143 -10 90 43 q 37 97 37 171 l 37 342 q 37 416 90 469 q 143 522 220 522 l 415 522 q 492 522 545 469 q 598 416 598 342 l 598 186 z m 476 303 l 476 342 q 476 369 458 387 q 439 405 415 405 l 220 405 q 195 405 177 387 q 159 369 159 342 l 159 303 z"},"b":{"x_min":0,"x_max":635,"ha":635,"o":"m 476 342 q 476 369 458 387 q 439 405 415 405 l 159 405 l 159 107 l 415 107 q 439 107 458 126 q 476 144 476 171 z m 37 693 l 159 693 l 159 522 l 415 522 q 492 522 545 469 q 598 416 598 342 l 598 171 q 598 97 545 43 q 492 -10 415 -10 l 37 -10 z"},"%":{"x_min":0,"x_max":781,"ha":781,"o":"m 159 488 q 159 461 177 443 q 195 425 220 425 l 269 425 q 293 425 311 443 q 330 461 330 488 l 330 513 q 330 540 311 558 q 293 576 269 576 l 220 576 q 195 576 177 558 q 159 540 159 513 z m 452 171 q 452 144 470 126 q 488 107 513 107 l 562 107 q 586 107 604 126 q 623 144 623 171 l 623 195 q 623 222 604 240 q 586 259 562 259 l 513 259 q 488 259 470 240 q 452 222 452 195 z m 317 311 q 309 308 269 308 l 220 308 q 143 308 90 361 q 37 414 37 488 l 37 513 q 37 587 90 640 q 143 693 220 693 l 269 693 q 345 693 399 640 q 430 609 432 603 l 467 693 l 590 693 l 464 373 q 472 376 513 376 l 562 376 q 638 376 691 323 q 745 270 745 195 l 745 171 q 745 97 691 43 q 638 -10 562 -10 l 513 -10 q 436 -10 383 44 q 352 75 350 81 l 314 -10 l 191 -10 z"},"m":{"x_min":0,"x_max":928,"ha":928,"o":"m 403 342 q 403 369 385 387 q 366 405 342 405 l 220 405 q 195 405 177 387 q 159 369 159 342 l 159 -10 l 37 -10 l 37 342 q 37 416 90 469 q 143 522 220 522 l 342 522 q 418 522 464 477 q 509 522 586 522 l 708 522 q 785 522 838 469 q 891 416 891 342 l 891 -10 l 769 -10 l 769 342 q 769 369 751 387 q 732 405 708 405 l 586 405 q 562 405 543 387 q 525 369 525 342 l 525 -10 l 403 -10 z"},"#":{"x_min":0,"x_max":635,"ha":635,"o":"m 134 498 l 134 645 l 256 645 l 256 498 l 378 498 l 378 645 l 500 645 l 500 498 l 598 498 l 598 381 l 500 381 l 500 303 l 598 303 l 598 186 l 500 186 l 500 39 l 378 39 l 378 186 l 256 186 l 256 39 l 134 39 l 134 186 l 37 186 l 37 303 l 134 303 l 134 381 l 37 381 l 37 498 z m 256 381 l 256 303 l 378 303 l 378 381 z"},",":{"x_min":0,"x_max":195,"ha":195,"o":"m 85 -10 l 37 -10 l 37 107 l 159 107 l 159 -24 q 159 -48 141 -65 q 124 -83 98 -83 l 70 -83 l 30 -15 l 73 -15 q 85 -15 85 -10 z"},"n":{"x_min":0,"x_max":635,"ha":635,"o":"m 159 -10 l 37 -10 l 37 342 q 37 416 90 469 q 143 522 220 522 l 415 522 q 492 522 545 469 q 598 416 598 342 l 598 -10 l 476 -10 l 476 342 q 476 369 458 387 q 439 405 415 405 l 220 405 q 195 405 177 387 q 159 369 159 342 z"},"h":{"x_min":0,"x_max":635,"ha":635,"o":"m 159 -10 l 37 -10 l 37 693 l 159 693 l 159 522 l 415 522 q 492 522 545 469 q 598 416 598 342 l 598 -10 l 476 -10 l 476 342 q 476 369 458 387 q 439 405 415 405 l 159 405 z"},"z":{"x_min":0,"x_max":635,"ha":635,"o":"m 272 107 l 598 107 l 598 -10 l 26 -10 l 362 405 l 37 405 l 37 522 l 608 522 z"},"B":{"x_min":0,"x_max":781,"ha":781,"o":"m 159 400 l 562 400 q 586 400 604 419 q 623 437 623 464 l 623 513 q 623 540 604 558 q 586 576 562 576 l 159 576 z m 159 283 l 159 107 l 562 107 q 586 107 604 126 q 623 144 623 171 l 623 220 q 623 247 604 265 q 586 283 562 283 z m 697 342 q 745 290 745 220 l 745 171 q 745 97 691 43 q 638 -10 562 -10 l 37 -10 l 37 693 l 562 693 q 638 693 691 640 q 745 587 745 513 l 745 464 q 745 394 697 342 z"},"K":{"x_min":0,"x_max":757,"ha":757,"o":"m 37 693 l 159 693 l 159 275 l 605 693 l 759 693 l 420 376 l 756 -10 l 616 -10 l 343 304 l 159 131 l 159 -10 l 37 -10 z"},"R":{"x_min":0,"x_max":781,"ha":781,"o":"m 159 352 l 562 352 q 586 352 604 370 q 623 388 623 415 l 623 513 q 623 540 604 558 q 586 576 562 576 l 159 576 z m 159 -10 l 37 -10 l 37 693 l 562 693 q 638 693 691 640 q 745 587 745 513 l 745 415 q 745 341 697 293 q 745 245 745 171 l 745 -10 l 623 -10 l 623 171 q 623 198 604 216 q 586 234 562 234 l 159 234 z"},"T":{"x_min":0,"x_max":781,"ha":781,"o":"m 745 693 l 745 576 l 452 576 l 452 -10 l 330 -10 l 330 576 l 37 576 l 37 693 z"},"P":{"x_min":0,"x_max":781,"ha":781,"o":"m 159 352 l 562 352 q 586 352 604 370 q 623 388 623 415 l 623 513 q 623 540 604 558 q 586 576 562 576 l 159 576 z m 37 693 l 562 693 q 638 693 691 640 q 745 587 745 513 l 745 415 q 745 341 691 288 q 638 234 562 234 l 159 234 l 159 -10 l 37 -10 z"},"|":{"x_min":0,"x_max":195,"ha":195,"o":"m 37 742 l 159 742 l 159 -59 l 37 -59 z"},"t":{"x_min":0,"x_max":439,"ha":439,"o":"m 403 522 l 403 405 l 159 405 l 159 171 q 159 145 177 126 q 195 108 220 107 l 403 107 l 403 -10 l 220 -9 q 143 -9 90 44 q 37 97 37 171 l 37 694 l 159 694 l 159 522 z"},"M":{"x_min":0,"x_max":830,"ha":830,"o":"m 333 -10 l 159 434 l 159 -10 l 37 -10 l 37 693 l 180 693 l 410 107 l 420 107 l 650 693 l 793 693 l 793 -10 l 671 -10 l 671 434 l 497 -10 z"},"g":{"x_min":0,"x_max":635,"ha":635,"o":"m 159 171 q 159 144 177 126 q 195 107 220 107 l 476 107 l 476 405 l 220 405 q 195 405 177 387 q 159 369 159 342 z m 476 -10 l 220 -10 q 143 -10 90 43 q 37 97 37 171 l 37 342 q 37 416 90 469 q 143 522 220 522 l 598 522 l 598 -24 q 598 -99 545 -152 q 492 -205 415 -205 l 134 -205 l 134 -88 l 415 -88 q 439 -88 458 -70 q 476 -51 476 -24 z"},"j":{"x_min":0,"x_max":195,"ha":195,"o":"m 37 522 l 159 522 l 159 -24 q 159 -99 105 -152 q 52 -205 -24 -205 l -61 -205 l -61 -88 l -24 -88 q 0 -88 18 -70 q 37 -51 37 -24 z m 37 693 l 159 693 l 159 576 l 37 576 z"},"i":{"x_min":0,"x_max":195,"ha":195,"o":"m 37 522 l 159 522 l 159 -10 l 37 -10 z m 159 693 l 159 576 l 37 576 l 37 693 z"},"y":{"x_min":0,"x_max":635,"ha":635,"o":"m 476 522 l 598 522 l 598 -24 q 598 -99 545 -152 q 492 -205 415 -205 l 134 -205 l 134 -88 l 415 -88 q 439 -88 458 -70 q 476 -51 476 -24 l 476 -10 l 220 -10 q 143 -10 90 43 q 37 97 37 171 l 37 522 l 159 522 l 159 171 q 159 144 177 126 q 195 107 220 107 l 476 107 z"},"@":{"x_min":0,"x_max":684,"ha":684,"o":"m 305 317 q 305 291 323 272 q 342 254 366 254 l 525 254 l 525 430 l 366 430 q 342 430 323 411 q 305 393 305 366 z m 525 576 l 220 576 q 195 576 177 558 q 159 540 159 513 l 159 171 q 159 144 177 126 q 195 107 220 107 l 598 107 l 598 -10 l 220 -10 q 143 -10 90 43 q 37 97 37 171 l 37 513 q 37 587 90 640 q 143 693 220 693 l 647 693 l 647 137 l 366 137 q 290 137 236 190 q 183 243 183 317 l 183 366 q 183 440 236 494 q 290 547 366 547 l 525 547 z"},".":{"x_min":0,"x_max":195,"ha":195,"o":"m 37 107 l 159 107 l 159 -10 l 37 -10 z"},"p":{"x_min":0,"x_max":635,"ha":635,"o":"m 476 342 q 476 369 458 387 q 439 405 415 405 l 159 405 l 159 107 l 415 107 q 439 107 458 126 q 476 144 476 171 z m 37 522 l 415 522 q 492 522 545 469 q 598 416 598 342 l 598 171 q 598 97 545 43 q 492 -10 415 -10 l 159 -10 l 159 -181 l 37 -181 z"},"X":{"x_min":0,"x_max":732,"ha":732,"o":"m 297 342 l 1 693 l 141 693 l 366 425 l 592 693 l 731 693 l 436 342 l 731 -10 l 592 -10 l 366 259 l 141 -10 l 1 -10 z"},"*":{"x_min":0,"x_max":513,"ha":513,"o":"m 318 619 l 436 657 l 472 545 l 354 507 l 427 406 l 329 335 l 257 435 l 185 335 l 87 406 l 160 507 l 42 545 l 78 657 l 196 619 l 196 742 l 318 742 z"},"Y":{"x_min":0,"x_max":732,"ha":732,"o":"m 305 332 l 301 336 l 1 693 l 141 693 l 366 425 l 592 693 l 731 693 l 432 336 l 427 332 l 427 -10 l 305 -10 z"},"c":{"x_min":0,"x_max":635,"ha":635,"o":"m 598 107 l 598 -10 l 220 -10 q 143 -10 90 43 q 37 97 37 171 l 37 342 q 37 416 90 469 q 143 522 220 522 l 599 522 l 598 405 l 220 405 q 195 405 177 387 q 159 369 159 342 l 159 171 q 159 144 177 126 q 195 107 220 107 z"},"!":{"x_min":0,"x_max":195,"ha":195,"o":"m 159 137 l 37 137 l 37 693 l 159 693 z m 37 -10 l 37 107 l 159 107 l 159 -10 z"},"/":{"x_min":0,"x_max":464,"ha":464,"o":"m 32 -10 l 309 693 l 432 693 l 155 -10 z"},"[":{"x_min":0,"x_max":488,"ha":488,"o":"m 452 59 l 452 -59 l 37 -59 l 37 742 l 452 742 l 452 625 l 159 625 l 159 59 z"},"6":{"x_min":0,"x_max":732,"ha":732,"o":"m 159 332 l 159 171 q 159 144 177 126 q 195 107 220 107 l 513 107 q 537 107 555 126 q 574 144 574 171 l 574 269 q 574 295 555 314 q 537 332 513 332 z m 159 449 l 513 449 q 589 449 643 396 q 696 343 696 269 l 696 171 q 696 97 643 43 q 589 -10 513 -10 l 220 -10 q 143 -10 90 43 q 37 97 37 171 l 37 513 q 37 587 90 640 q 143 693 220 693 l 647 693 l 647 576 l 220 576 q 195 576 177 558 q 159 540 159 513 z"},"r":{"x_min":0,"x_max":439,"ha":439,"o":"m 37 -10 l 37 342 q 37 416 90 469 q 143 522 220 522 l 403 522 l 403 405 l 220 405 q 195 405 177 387 q 159 369 159 342 l 159 -10 z"},"2":{"x_min":0,"x_max":732,"ha":732,"o":"m 220 283 q 195 283 177 265 q 159 247 159 220 l 159 107 l 696 107 l 696 -10 l 37 -10 l 37 220 q 37 294 90 347 q 143 400 220 400 l 513 400 q 537 400 555 419 q 574 437 574 464 l 574 513 q 574 540 555 558 q 537 576 513 576 l 37 576 l 37 693 l 513 693 q 589 693 643 640 q 696 587 696 513 l 696 464 q 696 390 643 336 q 589 283 513 283 z"},"{":{"x_min":0,"x_max":537,"ha":537,"o":"m 305 220 l 305 122 q 305 95 323 77 q 342 59 366 59 l 500 59 l 500 -59 l 366 -59 q 290 -59 236 -5 q 183 48 183 122 l 183 220 q 183 247 165 265 q 146 283 122 283 l 37 283 l 37 400 l 122 400 q 146 400 165 419 q 183 437 183 464 l 183 562 q 183 636 236 689 q 290 742 366 742 l 500 742 l 500 625 l 366 625 q 342 625 323 607 q 305 588 305 562 l 305 464 q 305 390 258 341 q 305 294 305 220 z"},"9":{"x_min":0,"x_max":732,"ha":732,"o":"m 574 352 l 574 513 q 574 540 555 558 q 537 576 513 576 l 220 576 q 195 576 177 558 q 159 540 159 513 l 159 415 q 159 388 177 370 q 195 352 220 352 z m 574 234 l 220 234 q 143 234 90 288 q 37 341 37 415 l 37 513 q 37 587 90 640 q 143 693 220 693 l 513 693 q 589 693 643 640 q 696 587 696 513 l 696 171 q 696 97 643 43 q 589 -10 513 -10 l 85 -10 l 85 107 l 513 107 q 537 107 555 126 q 574 144 574 171 z"}," ":{"x_min":0,"x_max":391,"ha":391,"o":""},"I":{"x_min":0,"x_max":195,"ha":195,"o":"m 37 693 l 159 693 l 159 -10 l 37 -10 z"},"H":{"x_min":0,"x_max":781,"ha":781,"o":"m 37 693 l 159 693 l 159 400 l 623 400 l 623 693 l 745 693 l 745 -10 l 623 -10 l 623 283 l 159 283 l 159 -10 l 37 -10 z"},"4":{"x_min":0,"x_max":732,"ha":732,"o":"m 598 205 l 696 205 l 696 88 l 598 88 l 598 -10 l 476 -10 l 476 88 l 31 88 l 333 693 l 482 693 l 238 205 l 476 205 l 476 352 l 598 352 z"},"~":{"x_min":0,"x_max":684,"ha":684,"o":"m 171 986 l 269 986 q 325 986 364 948 q 403 909 403 854 q 403 848 407 844 q 411 840 415 840 l 513 840 q 517 840 521 844 q 525 848 525 854 l 525 913 l 647 913 l 647 854 q 647 800 608 761 q 569 723 513 723 l 415 723 q 358 723 320 761 q 281 800 281 854 q 281 861 277 865 q 273 869 269 869 l 171 869 q 167 869 163 865 q 159 861 159 854 l 159 796 l 37 796 l 37 854 q 37 909 75 948 q 114 986 171 986 z"},"D":{"x_min":0,"x_max":781,"ha":781,"o":"m 159 107 l 562 107 q 586 107 604 126 q 623 144 623 171 l 623 513 q 623 540 604 558 q 586 576 562 576 l 159 576 z m 745 171 q 745 97 691 43 q 638 -10 562 -10 l 37 -10 l 37 693 l 562 693 q 638 693 691 640 q 745 587 745 513 z"},"^":{"x_min":0,"x_max":684,"ha":684,"o":"m 37 715 l 37 835 l 342 988 l 647 835 l 647 715 l 342 868 z"},"0":{"x_min":0,"x_max":732,"ha":732,"o":"m 159 171 q 159 144 177 126 q 195 107 220 107 l 513 107 q 537 107 555 126 q 574 144 574 171 l 574 513 q 574 540 555 558 q 537 576 513 576 l 220 576 q 195 576 177 558 q 159 540 159 513 z m 696 171 q 696 97 643 43 q 589 -10 513 -10 l 220 -10 q 143 -10 90 43 q 37 97 37 171 l 37 513 q 37 587 90 640 q 143 693 220 693 l 513 693 q 589 693 643 640 q 696 587 696 513 z"},"F":{"x_min":0,"x_max":781,"ha":781,"o":"m 159 283 l 159 -10 l 37 -10 l 37 513 q 37 587 90 640 q 143 693 220 693 l 745 693 l 745 576 l 220 576 q 195 576 177 558 q 159 540 159 513 l 159 400 l 647 400 l 647 283 z"},"`":{"x_min":0,"x_max":439,"ha":439,"o":"m 25 986 l 277 986 l 409 723 l 262 723 z"},"k":{"x_min":0,"x_max":610,"ha":610,"o":"m 37 693 l 159 693 l 159 272 l 162 275 l 459 522 l 614 522 l 310 268 l 613 -10 l 434 -10 l 226 198 l 159 143 l 159 -10 l 37 -10 z"},"u":{"x_min":0,"x_max":635,"ha":635,"o":"m 476 522 l 598 522 l 598 171 q 598 97 545 43 q 492 -10 415 -10 l 220 -10 q 143 -10 90 43 q 37 97 37 171 l 37 522 l 159 522 l 159 171 q 159 144 177 126 q 195 107 220 107 l 415 107 q 439 107 458 126 q 476 144 476 171 z"},"]":{"x_min":0,"x_max":488,"ha":488,"o":"m 330 59 l 330 625 l 37 625 l 37 742 l 452 742 l 452 -59 l 37 -59 l 37 59 z"},"U":{"x_min":0,"x_max":781,"ha":781,"o":"m 159 171 q 159 144 177 126 q 195 107 220 107 l 562 107 q 586 107 604 126 q 623 144 623 171 l 623 693 l 745 693 l 745 171 q 745 97 691 43 q 638 -10 562 -10 l 220 -10 q 143 -10 90 43 q 37 97 37 171 l 37 693 l 159 693 z"},"o":{"x_min":0,"x_max":635,"ha":635,"o":"m 159 171 q 159 144 177 126 q 195 107 220 107 l 415 107 q 439 107 458 126 q 476 144 476 171 l 476 342 q 476 369 458 387 q 439 405 415 405 l 220 405 q 195 405 177 387 q 159 369 159 342 z m 598 171 q 598 97 545 43 q 492 -10 415 -10 l 220 -10 q 143 -10 90 43 q 37 97 37 171 l 37 342 q 37 416 90 469 q 143 522 220 522 l 415 522 q 492 522 545 469 q 598 416 598 342 z"},"N":{"x_min":0,"x_max":781,"ha":781,"o":"m 159 536 l 159 -10 l 37 -10 l 37 693 l 165 693 l 623 148 l 623 693 l 745 693 l 745 -10 l 616 -10 z"},"+":{"x_min":0,"x_max":635,"ha":635,"o":"m 256 283 l 37 283 l 37 400 l 256 400 l 256 596 l 378 596 l 378 400 l 598 400 l 598 283 l 378 283 l 378 88 l 256 88 z"},"G":{"x_min":0,"x_max":781,"ha":781,"o":"m 745 400 l 745 171 q 745 97 691 43 q 638 -10 562 -10 l 220 -10 q 143 -10 90 43 q 37 97 37 171 l 37 513 q 37 587 90 640 q 143 693 220 693 l 745 693 l 745 576 l 220 576 q 195 576 177 558 q 159 540 159 513 l 159 171 q 159 144 177 126 q 195 107 220 107 l 562 107 q 586 107 604 126 q 623 144 623 171 l 623 283 l 378 283 l 378 400 z"},"q":{"x_min":0,"x_max":635,"ha":635,"o":"m 159 171 q 159 144 177 126 q 195 107 220 107 l 476 107 l 476 405 l 220 405 q 195 405 177 387 q 159 369 159 342 z m 598 -181 l 476 -181 l 476 -10 l 220 -10 q 143 -10 90 43 q 37 97 37 171 l 37 342 q 37 416 90 469 q 143 522 220 522 l 598 522 z"},"d":{"x_min":0,"x_max":635,"ha":635,"o":"m 159 171 q 159 144 177 126 q 195 107 220 107 l 476 107 l 476 405 l 220 405 q 195 405 177 387 q 159 369 159 342 z m 598 -10 l 220 -10 q 143 -10 90 43 q 37 97 37 171 l 37 342 q 37 416 90 469 q 143 522 220 522 l 476 522 l 476 693 l 598 693 z"},"1":{"x_min":0,"x_max":195,"ha":195,"o":"m 37 693 l 159 693 l 159 -10 l 37 -10 z"},"5":{"x_min":0,"x_max":732,"ha":732,"o":"m 37 332 l 37 693 l 647 693 l 647 576 l 159 576 l 159 449 l 513 449 q 589 449 643 396 q 696 343 696 269 l 696 171 q 696 97 643 43 q 589 -10 513 -10 l 37 -10 l 37 107 l 513 107 q 537 107 555 126 q 574 144 574 171 l 574 269 q 574 295 555 314 q 537 332 513 332 z"}}}
